<svg width="1620" height="360" viewBox="0 0 1620 360" fill="none" xmlns="http://www.w3.org/2000/svg">
<path fill-rule="evenodd" clip-rule="evenodd" d="M1547.82 164.08L1612.92 94.93H1575.81L1498.23 176.56V31H1470.24V266.62H1498.23V212.65L1527.93 182.29L1585.95 266.62H1620L1547.82 164.08ZM773.1 90.8201C751.47 90.8201 732.24 101.11 720 117.04C707.76 101.11 688.53 90.8201 666.9 90.8201C629.94 90.8201 600 120.76 600 157.72V266.62L627.6 266.44V157.72C627.6 136.03 645.21 118.42 666.9 118.42C688.59 118.42 706.2 136.03 706.2 157.72V266.44H733.8V157.72C733.8 136.03 751.41 118.42 773.1 118.42C794.79 118.42 812.4 136.03 812.4 157.72V266.44H840V157.72C840 120.76 810.06 90.8201 773.1 90.8201ZM970.53 90.8799H959.4C937.14 90.8799 919.71 97.1199 907.11 109.6C894.51 122.08 888.21 139.45 888.21 161.71V200.17C888.21 222.22 894.51 239.53 907.11 252.1C919.71 264.7 937.14 271 959.4 271H970.53C992.79 271 1010.16 264.7 1022.64 252.1C1035.12 239.5 1041.36 222.19 1041.36 200.17V161.71C1041.36 139.69 1035.12 122.35 1022.64 109.78C1010.16 97.1799 992.79 90.8799 970.53 90.8799ZM1013.01 199.48C1013.01 213.22 1009.17 223.99 1001.55 231.85C993.9 239.71 983.34 243.64 969.84 243.64H959.73C946.23 243.64 935.67 239.71 928.02 231.85C920.37 223.99 916.56 213.19 916.56 199.48V162.04C916.56 148.33 920.37 137.53 928.02 129.67C935.67 121.81 946.23 117.85 959.73 117.85H969.84C983.34 117.85 993.9 121.78 1001.55 129.67C1009.17 137.53 1013.01 148.33 1013.01 162.04V199.48ZM1217.49 94.9299V114.16L1119.66 241.33H1218.84V266.62H1083.24V247.39L1180.71 120.22H1087.62V94.9299H1217.49ZM1334.61 89.9199H1339.32L1339.35 89.9499C1362.06 89.9499 1379.16 95.8299 1390.62 107.65C1402.08 119.44 1407.81 136.03 1407.81 157.39V265.66H1380.48V254.71C1376.85 258.43 1372.68 261.58 1367.82 263.98C1359.63 268.03 1350.33 270.04 1340.01 270.04H1321.11C1301.79 270.04 1286.67 265.06 1275.75 255.04C1264.86 245.02 1259.4 232.15 1259.4 215.74C1259.4 199.33 1264.86 186.1 1275.75 176.11C1286.64 166.12 1301.76 161.11 1321.11 161.11H1380.48V151.66C1380.48 141.07 1377.03 132.43 1370.19 125.68C1363.32 118.93 1353.72 115.57 1341.36 115.57H1333.59C1322.58 115.57 1313.58 118.15 1306.62 123.31C1302.9 126.07 1299.96 129.37 1297.71 133.09L1273.35 120.16C1277.07 113.74 1281.81 108.22 1287.72 103.75C1299.87 94.5399 1315.5 89.9199 1334.61 89.9199ZM1380.48 203.92V196.03L1380.45 196V185.35H1325.13C1313.22 185.35 1303.98 188.11 1297.47 193.63C1290.96 199.15 1287.69 206.29 1287.69 215.05C1287.69 223.81 1290.96 231.04 1297.47 236.65C1303.98 242.26 1313.22 245.08 1325.13 245.08H1336.95C1349.79 245.08 1360.23 241.48 1368.33 234.28C1376.43 227.08 1380.48 216.97 1380.48 203.92Z" fill="#112A44"/>
<path fill-rule="evenodd" clip-rule="evenodd" d="M285 50.97C303.39 20.46 336.84 0 375 0C432.9 0 480 47.1 480 105V255C480 263.28 473.28 270 465 270C456.72 270 450 263.28 450 255V105C450 63.63 416.37 30 375 30C333.63 30 300 63.63 300 105V255C300 263.28 293.28 270 285 270C276.72 270 270 263.28 270 255V105C270 63.63 236.37 30 195 30C153.63 30 120 63.63 120 105V255C120 263.28 113.28 270 105 270C96.72 270 90 263.28 90 255V105C90 47.1 137.1 0 195 0C233.16 0 266.61 20.46 285 50.97ZM360 105C360 96.7198 366.72 89.9998 375 89.9998C383.28 89.9998 390 96.7198 390 105V255C390 312.9 342.9 360 285 360C246.84 360 213.39 339.54 195 309.03C176.61 339.54 143.16 360 105 360C47.1 360 0 312.9 0 255V105C0 96.7198 6.72 89.9998 15 89.9998C23.28 89.9998 30 96.7198 30 105V255C30 296.37 63.63 330 105 330C146.37 330 180 296.37 180 255V105C180 96.7198 186.72 89.9998 195 89.9998C203.28 89.9998 210 96.7198 210 105V255C210 296.37 243.63 330 285 330C326.37 330 360 296.37 360 255V105Z" fill="#112A44"/>
</svg>
