<svg version="1.1" id="_Ebene_" xmlns:x="ns_extend;" xmlns:i="ns_ai;" xmlns:graph="ns_graphs;" xmlns="http://www.w3.org/2000/svg" xmlns:xlink="http://www.w3.org/1999/xlink" x="0px" y="0px" viewBox="0 0 566 132.7" style="enable-background:new 0 0 566 132.7;" xml:space="preserve">
 <style type="text/css">
  .st0{fill:#FFFFFF;}
 </style>
 <metadata>
  <sfw xmlns="ns_sfw;">
   <slices>
   </slices>
   <sliceSourceBounds bottomLeftOrigin="true" height="132.7" width="566" x="5" y="5.6">
   </sliceSourceBounds>
  </sfw>
 </metadata>
 <g>
  <g>
   <path class="st0" d="M546.9,77.2c4.4,4.4,11.4,4.4,15.8,0c4.4-4.4,4.4-11.4,0-15.8s-11.4-4.4-15.8,0c-2.1,2.1-3.3,4.9-3.3,7.9
			C543.6,72.3,544.8,75.1,546.9,77.2">
   </path>
   <path class="st0" d="M528.1,96c3.4,3.4,8.8,3.4,12.2,0c3.4-3.4,3.4-8.8,0-12.2c-3.4-3.4-8.8-3.4-12.2,0c-1.6,1.6-2.5,3.8-2.5,6.1
			C525.6,92.2,526.5,94.3,528.1,96">
   </path>
   <path class="st0" d="M528.2,54.8c3.4,3.4,8.8,3.4,12.2,0c3.4-3.4,3.4-8.8,0-12.2c-3.4-3.4-8.8-3.4-12.2,0
			c-1.6,1.6-2.5,3.8-2.5,6.1C525.6,51,526.5,53.2,528.2,54.8">
   </path>
   <path class="st0" d="M509,115.1c2.6,2.6,6.8,2.6,9.4,0c2.6-2.6,2.6-6.8,0-9.4c-2.6-2.6-6.8-2.6-9.4,0c-1.2,1.2-1.9,2.9-1.9,4.7
			C507,112.2,507.7,113.9,509,115.1">
   </path>
   <path class="st0" d="M509,74c2.6,2.6,6.8,2.6,9.4,0s2.6-6.8,0-9.4c-2.6-2.6-6.8-2.6-9.4,0c-1.2,1.2-1.9,2.9-1.9,4.7
			C507,71.1,507.7,72.7,509,74">
   </path>
   <path class="st0" d="M509,32.8c2.6,2.6,6.8,2.6,9.4,0c2.6-2.6,2.6-6.8,0-9.4c-2.6-2.6-6.8-2.6-9.4,0c-1.2,1.2-1.9,2.9-1.9,4.7
			C507.1,29.9,507.8,31.6,509,32.8">
   </path>
   <path class="st0" d="M489.5,93.5c2,2,5.2,2,7.2,0c2-2,2-5.2,0-7.2c-2-2-5.2-2-7.2,0c-1,1-1.5,2.2-1.5,3.6
			C488,91.2,488.5,92.5,489.5,93.5">
   </path>
   <path class="st0" d="M489.5,52.3c2,2,5.2,2,7.2,0c2-2,2-5.2,0-7.2c-2-2-5.2-2-7.2,0c-1,1-1.5,2.2-1.5,3.6
			C488,50.1,488.5,51.4,489.5,52.3">
   </path>
   <path class="st0" d="M469.7,72.1c1.5,1.5,4,1.5,5.5,0c1.5-1.5,1.5-4,0-5.5c-1.5-1.5-4-1.5-5.5,0c-0.7,0.7-1.1,1.7-1.1,2.8
			C468.6,70.4,469,71.4,469.7,72.1">
   </path>
  </g>
  <g>
   <path class="st0" d="M140.6,49v-9.7c4.7,1.6,9.6,2.5,14.6,2.6c5.8,0,8.8-1.5,8.8-4.6c0-1.1-0.4-2.2-1.3-2.9
			c-0.9-0.8-3.1-2-6.7-3.5c-6.4-2.6-10.6-4.9-12.6-6.8c-2.5-2.4-3.9-5.8-3.8-9.3c0-4.8,1.8-8.5,5.5-11c3.6-2.5,8.4-3.8,14.2-3.8
			c4.7,0.2,9.4,0.8,14,1.8v9.3c-4-1.7-8.3-2.6-12.6-2.7c-5.5,0-8.2,1.5-8.2,4.5c0,1.2,0.7,2.2,1.7,2.8c0.9,0.6,3.5,1.8,7.6,3.7
			c6,2.6,9.9,5,11.9,6.9c2.4,2.4,3.7,5.7,3.5,9c0.2,5-2.5,9.7-6.9,12.1c-3.7,2.3-8.6,3.4-14.5,3.4C150.6,50.7,145.5,50.2,140.6,49">
   </path>
   <path class="st0" d="M184.9,49.8h13.7V0.9h-13.7V49.8z">
   </path>
   <polygon class="st0" points="211.1,0.9 211.1,49.8 246.7,49.8 246.7,40.4 224.2,40.4 224.2,28.8 243.3,28.8 243.3,20.7 
			224.2,20.7 224.2,9.7 246.1,9.7 246.1,0.9 		">
   </polygon>
   <polygon class="st0" points="298.2,0.9 285.6,32.1 273.3,0.9 255.6,0.9 255.6,49.8 265.2,49.8 265.2,15.1 279.3,50.3 287.8,50.3 
			302.1,15.1 302.1,49.8 315.1,49.8 315.1,0.9 		">
   </polygon>
   <polygon class="st0" points="327.6,0.9 327.6,49.8 363.2,49.8 363.2,40.4 340.8,40.4 340.8,28.8 359.8,28.8 359.8,20.7 
			340.8,20.7 340.8,9.7 362.6,9.7 362.6,0.9 		">
   </polygon>
   <polygon class="st0" points="404.8,0.9 404.8,33.6 388,0.9 372.2,0.9 372.2,49.8 381.8,49.8 381.8,16.6 399.1,49.8 414.4,49.8 
			414.4,0.9 		">
   </polygon>
   <path class="st0" d="M424.1,49v-9.7c4.7,1.6,9.6,2.5,14.6,2.6c5.8,0,8.8-1.5,8.8-4.6c0-1.1-0.4-2.2-1.2-2.9
			c-0.9-0.8-3.1-2-6.7-3.5c-6.4-2.6-10.6-4.9-12.6-6.8c-2.5-2.4-3.9-5.8-3.8-9.4c0-4.8,1.8-8.5,5.5-11c3.6-2.5,8.4-3.8,14.2-3.8
			c4.3,0.1,8.6,0.6,12.8,1.6l1.2,0.2v9.3c-4-1.7-8.3-2.6-12.7-2.7c-5.5,0-8.2,1.5-8.2,4.5c0,1.2,0.6,2.2,1.6,2.8
			c0.9,0.5,3.4,1.8,7.6,3.7c5.9,2.6,9.9,5,11.9,6.9c2.4,2.4,3.7,5.7,3.5,9c0.2,5-2.5,9.7-6.9,12.1c-3.8,2.3-8.6,3.4-14.5,3.4
			C434.2,50.7,429.1,50.2,424.1,49">
   </path>
  </g>
  <g>
   <path class="st0" d="M338.3,99.8c0,5.8-7.8,7.2-13.3,7.3c0.2-5.8,3.3-11.5,9-11.5c2.2-0.2,4.1,1.4,4.3,3.6
			C338.3,99.5,338.3,99.7,338.3,99.8 M348.6,99.8c0-8-5.5-12.3-14-12.3c-13.8,0-21,11.3-21,23.7c0,12.6,5.7,21.6,20.1,21.6
			c5.5,0.1,10.9-1.6,15.4-4.7l-3.4-7.8c-3.1,2.2-6.7,3.5-10.5,3.6c-6.4,0-9.1-4.3-9.7-8.3C335.7,115,348.6,112.5,348.6,99.8">
   </path>
   <path class="st0" d="M379.2,99.8c0,5.8-7.8,7.2-13.3,7.3c0.2-5.8,3.3-11.5,9-11.5c2.2-0.2,4.1,1.4,4.3,3.6
			C379.2,99.5,379.2,99.7,379.2,99.8 M389.5,99.8c0-8-5.5-12.3-14-12.3c-13.8,0-21,11.3-21,23.7c0,12.6,5.7,21.6,20.1,21.6
			c5.5,0.1,10.9-1.6,15.4-4.7l-3.4-7.8c-3.1,2.2-6.7,3.5-10.5,3.6c-6.4,0-9.1-4.3-9.7-8.3C376.6,115,389.5,112.5,389.5,99.8">
   </path>
   <path class="st0" d="M75,99.8c0,5.8-7.8,7.2-13.3,7.3c0.2-5.8,3.3-11.5,9-11.5c2.2-0.2,4.1,1.4,4.3,3.6C75,99.5,75,99.7,75,99.8
			 M85.3,99.8c0-8-5.5-12.3-14-12.3c-13.8,0-21,11.3-21,23.7c0,12.6,5.7,21.6,20.1,21.6c5.5,0.1,10.9-1.6,15.4-4.7l-3.4-7.8
			c-3.1,2.2-6.7,3.5-10.5,3.6c-6.4,0-9.1-4.3-9.7-8.3C72.4,115,85.3,112.5,85.3,99.8">
   </path>
   <polygon class="st0" points="29.3,75.4 29.3,97.7 12.1,97.7 12.1,75.4 0,75.4 0,131.5 12.1,131.5 12.1,108.3 29.3,108.3 
			29.3,131.5 41.3,131.5 41.3,75.4 		">
   </polygon>
   <path class="st0" d="M118.3,117.8c0,3.1-2.5,6.3-6.9,6.3c-6.2,0-7.7-6-7.7-12.8c0-8.3,2.4-15.2,9.3-15.2c1.8,0,3.6,0.3,5.3,0.9
			V117.8z M130.8,131.5l-0.8-8.5V90.6c-5-1.9-10.2-2.9-15.5-3.1c-14.9,0-22.3,9.7-22.3,24.5c0,11.4,4.1,20.7,16.4,20.7
			c4.6,0,8.8-1.7,11.3-5.6l0.4,0.1l0.6,4.3L130.8,131.5z">
   </path>
   <path class="st0" d="M140.5,75.5v43.2c0,7.1,0.7,14,12.8,14c3.7,0,7.4-0.9,10.7-2.7l-2.5-7.8c-1.6,0.8-3.4,1.2-5.1,1.4
			c-3.1,0-4.1-1.9-4.1-6.5V75.5H140.5z">
   </path>
   <path class="st0" d="M213.6,131.5v-27.6c-0.1-4,2.9-7.3,6.9-7.4c0.1,0,0.2,0,0.3,0c4.5,0,5.4,3.4,5.4,7.8v27.2h11.7v-29
			c0-10-4.8-15-13.7-15c-4-0.1-7.8,1.5-10.6,4.4V75.4h-11.7v56.1H213.6z">
   </path>
   <path class="st0" d="M248.3,131.5H260V88.7h-11.7V131.5z">
   </path>
   <path class="st0" d="M247.7,75.4c-0.1,1.6,0.6,3.2,1.7,4.3c1.3,1.1,2.9,1.8,4.6,1.7c1.7,0.1,3.4-0.5,4.6-1.7
			c2.4-2.3,2.4-6.2,0-8.6c0,0,0,0,0,0c-1.3-1.2-2.9-1.8-4.6-1.8c-1.7,0-3.4,0.6-4.6,1.8C248.4,72.2,247.7,73.8,247.7,75.4">
   </path>
   <path class="st0" d="M282.1,131.5v-27.4c-0.2-4,3-7.4,7-7.6c0.1,0,0.2,0,0.3,0c4.5,0,5.2,3.5,5.2,8.1v26.9h11.7v-29.2
			c0-10.1-5.1-14.8-13.4-14.8c-5-0.2-9.8,2.2-12.7,6.3l-0.8-5.1h-9.8l0.8,7.9v34.8L282.1,131.5z">
   </path>
   <path class="st0" d="M410.3,104.9c0.2-4.5,2.9-7.3,7.1-7.3c2.1,0,4.1,0.5,6,1.5l2.1-10.1c-2.2-1.1-4.6-1.6-7-1.5
			c-4,0-8.1,2.4-10.1,7.3l-1.1-6.1h-9.5l0.8,7.4v35.3h11.7L410.3,104.9z">
   </path>
   <path class="st0" d="M457.8,91.2L457.8,91.2c-4.1-2.8-9-4-13.9-3.7c-8.7,0.5-15.5,5.6-15,14.5s7,11,13.4,12.6
			c3.7,0.9,6.8,1.6,6.9,4.9c0.2,3.2-2,4.6-5.2,4.7c-3.8,0.2-8.6-1.5-11.7-3.1l-3.5,8c2.5,1.6,8.8,4,16.3,3.6
			c9.8-0.5,16.1-5.6,15.6-15.2c-0.5-8.8-7.5-10.7-13.7-12.3c-3.9-1-6.7-1.9-6.9-5.2c-0.1-2.8,2.1-4,4.9-4.1c2.9-0.1,6,1.1,9.3,3.4
			L457.8,91.2z">
   </path>
   <path class="st0" d="M181.2,97.9h11v-9.2h-11V75.4h-11.7v13.3H163v9.2h6.5v20.8c0,7.1,0.7,14,12.8,14c3.7,0,7.4-0.9,10.7-2.7
			l-2.5-7.8c-1.6,0.8-3.4,1.2-5.1,1.4c-3.1,0-4.1-1.9-4.1-6.5L181.2,97.9z">
   </path>
  </g>
 </g>
</svg>