<svg version="1.1" id="Layer_1" xmlns:x="ns_extend;" xmlns:i="ns_ai;" xmlns:graph="ns_graphs;" xmlns="http://www.w3.org/2000/svg" xmlns:xlink="http://www.w3.org/1999/xlink" x="0px" y="0px" viewBox="0 0 55.9 56" style="enable-background:new 0 0 55.9 56;" xml:space="preserve">
 <style type="text/css">
  .st0{fill:#FFFFFF;}
 </style>
 <metadata>
  <sfw xmlns="ns_sfw;">
   <slices>
   </slices>
   <sliceSourceBounds bottomLeftOrigin="true" height="56" width="55.9" x="446.1" y="-394.2">
   </sliceSourceBounds>
  </sfw>
 </metadata>
 <g>
  <path class="st0" d="M55.6,0L55.6,0L0,0v56l0.4-0.2c8.7-3.9,18-5.9,27.6-5.9c9.6,0,18.9,2,27.5,5.9l0.4,0.2l0.1-56H55.6z M8.5,26.5
		c2.3,0,2.5-2.6,2.5-2.6h1.3v3.9H2.4c0,0-0.3-3,3.1-6.6c0,0,2.2-2.4,2.7-4.2l-1.2,0h0c-2.7,0-2.9,2.6-2.9,2.6H2.9v-3.9h9.7
		c0,0,0,3-2.9,6.2c0,0-2.7,3.2-2.8,4.5H8.5z M23.8,27.8l-10.2,0v-1.3h0.3c0.5,0,0.9-0.4,0.9-1V18c0-0.5-0.4-1-0.9-1h-0.3v-1.3h10.2
		v3.9h-1.3c0,0-0.3-2.6-2.6-2.6h-1.3v4.1h0.5c0.5,0,1-0.4,1-1v-0.5h1.3v4.2h-1.3v-0.5c0-0.5-0.5-1-1-1h-0.5v4.1H20
		c2.3,0,2.6-2.6,2.6-2.6h1.3V27.8L23.8,27.8L23.8,27.8z M31.5,17h-0.3c-0.5,0-1,0.4-1,1v7.5c0,0.5,0.5,1,1,1h0.3v1.3h-6.4v-1.3h0.3
		c0.6,0,1-0.4,1-1V18c0-0.5-0.4-1-1-1h-0.3v-1.3h6.4V17z M42.2,27.8h-9.3v-3.9h1.3c0,0,0.2,2.6,2.5,2.6h1.6
		c-0.1-1.4-2.8-4.5-2.8-4.5c-3.9-4.3-2.4-6.2-2.4-6.2h9.2v3.9h-1.2c0,0-0.2-2.6-2.9-2.6L37,17c0.4,2,2.7,4.2,2.7,4.2
		C43.9,26,42.2,27.8,42.2,27.8z M53,27.8h-9.3v-3.9h1.3c0,0,0.3,2.6,2.5,2.6H49c-0.1-1.4-2.8-4.5-2.8-4.5c-3.9-4.3-2.4-6.2-2.4-6.2
		h9.3v3.9h-1.3c0,0-0.2-2.6-2.8-2.6h0l-1.2,0c0.4,2,2.6,4.2,2.6,4.2C54.6,26,53,27.8,53,27.8z">
  </path>
 </g>
</svg>